# OBJ file building_6_8.5_7_1.2.obj
# sides: 6, h: 8.5, R_Base: 7, R_Cima: 1.2
# Vertices totales: 14
# Normales totales: 18
# Caras totales: 24

v 7.0000 0.0000 0.0000
v 3.5000 0.0000 6.0622
v -3.5000 0.0000 6.0622
v -7.0000 0.0000 0.0000
v -3.5000 0.0000 -6.0622
v 3.5000 0.0000 -6.0622
v 1.2000 8.5000 0.0000
v 0.6000 8.5000 1.0392
v -0.6000 8.5000 1.0392
v -1.2000 8.5000 0.0000
v -0.6000 8.5000 -1.0392
v 0.6000 8.5000 -1.0392
v 0.0000 0.0000 0.0000
v 0.0000 8.5000 0.0000
vn 0.7456 0.5087 0.4305
vn 0.0000 0.5087 0.8609
vn -0.7456 0.5087 0.4305
vn -0.7456 0.5087 -0.4305
vn 0.0000 0.5087 -0.8609
vn 0.7456 0.5087 -0.4305
vn 0.0000 1.0000 0.0000
vn 0.0000 1.0000 0.0000
vn 0.0000 1.0000 0.0000
vn 0.0000 1.0000 0.0000
vn 0.0000 1.0000 0.0000
vn 0.0000 1.0000 0.0000
vn 0.0000 -1.0000 0.0000
vn 0.0000 -1.0000 0.0000
vn 0.0000 -1.0000 0.0000
vn 0.0000 -1.0000 0.0000
vn 0.0000 -1.0000 0.0000
vn 0.0000 -1.0000 0.0000
f 1//1 7//1 2//1
f 2//1 7//1 8//1
f 2//2 8//2 3//2
f 3//2 8//2 9//2
f 3//3 9//3 4//3
f 4//3 9//3 10//3
f 4//4 10//4 5//4
f 5//4 10//4 11//4
f 5//5 11//5 6//5
f 6//5 11//5 12//5
f 6//6 12//6 1//6
f 1//6 12//6 7//6
f 14//7 8//7 7//7
f 14//8 9//8 8//8
f 14//9 10//9 9//9
f 14//10 11//10 10//10
f 14//11 12//11 11//11
f 14//12 7//12 12//12
f 13//13 1//13 2//13
f 13//14 2//14 3//14
f 13//15 3//15 4//15
f 13//16 4//16 5//16
f 13//17 5//17 6//17
f 13//18 6//18 1//18